HIERARCHY
ROOT Hips
{
	OFFSET 0.000000 0.000000 0.000000
	CHANNELS 6 Xposition Yposition Zposition Xrotation Yrotation Zrotation
	JOINT LeftUpLeg
	{
		OFFSET 0.182477 0.000000 0.000000
		CHANNELS 6 Xposition Yposition Zposition Xrotation Yrotation Zrotation
		JOINT LeftLeg
		{
			OFFSET 0.000000 -0.785290 0.000000
			CHANNELS 6 Xposition Yposition Zposition Xrotation Yrotation Zrotation
			JOINT LeftFoot
			{
				OFFSET 0.000000 -0.770934 0.000000
				CHANNELS 6 Xposition Yposition Zposition Xrotation Yrotation Zrotation
				JOINT LeftToeBase
				{
					OFFSET 0.000000 -0.076772 0.286517
					CHANNELS 6 Xposition Yposition Zposition Xrotation Yrotation Zrotation
					End Site
					{
						OFFSET 0.000000 0.000000 0.147637
					}
				}
			}
		}
	}
	JOINT RightUpLeg
	{
		OFFSET -0.182477 0.000000 0.000000
		CHANNELS 6 Xposition Yposition Zposition Xrotation Yrotation Zrotation
		JOINT RightLeg
		{
			OFFSET 0.000000 -0.785290 0.000000
			CHANNELS 6 Xposition Yposition Zposition Xrotation Yrotation Zrotation
			JOINT RightFoot
			{
				OFFSET 0.000000 -0.770934 0.000000
				CHANNELS 6 Xposition Yposition Zposition Xrotation Yrotation Zrotation
				JOINT RightToeBase
				{
					OFFSET 0.000000 -0.076772 0.286517
					CHANNELS 6 Xposition Yposition Zposition Xrotation Yrotation Zrotation
					End Site
					{
						OFFSET 0.000000 0.000000 0.147637
					}
				}
			}
		}
	}
	JOINT Spine
	{
		OFFSET 0.000000 0.001968 -0.000000
		CHANNELS 6 Xposition Yposition Zposition Xrotation Yrotation Zrotation
		JOINT Spine1
		{
			OFFSET 0.000000 0.512415 -0.000000
			CHANNELS 6 Xposition Yposition Zposition Xrotation Yrotation Zrotation
			JOINT Neck
			{
				OFFSET 0.000000 0.391343 -0.000000
				CHANNELS 6 Xposition Yposition Zposition Xrotation Yrotation Zrotation
				JOINT Head
				{
					OFFSET 0.000000 0.345358 -0.000000
					CHANNELS 6 Xposition Yposition Zposition Xrotation Yrotation Zrotation
					End Site
					{
						OFFSET 0.000000 0.226377 -0.000000
					}
				}
			}
			JOINT LeftShoulder
			{
				OFFSET 0.000000 0.391343 -0.000000
				CHANNELS 6 Xposition Yposition Zposition Xrotation Yrotation Zrotation
				JOINT LeftArm
				{
					OFFSET 0.335509 -0.000001 0.000000
					CHANNELS 6 Xposition Yposition Zposition Xrotation Yrotation Zrotation
					JOINT LeftForeArm
					{
						OFFSET 0.547209 -0.000002 0.000000
						CHANNELS 6 Xposition Yposition Zposition Xrotation Yrotation Zrotation
						JOINT LeftHand
						{
							OFFSET 0.426005 -0.000002 0.000000
							CHANNELS 6 Xposition Yposition Zposition Xrotation Yrotation Zrotation
							JOINT LeftHandThumb
							{
								OFFSET 0.000000 0.000000 0.000000
								CHANNELS 6 Xposition Yposition Zposition Xrotation Yrotation Zrotation
								End Site
								{
									OFFSET 0.000000 0.000000 0.196850
								}
							}
							JOINT L_Wrist_End
							{
								OFFSET 0.196850 -0.000000 0.000000
								CHANNELS 6 Xposition Yposition Zposition Xrotation Yrotation Zrotation
								End Site
								{
									OFFSET 0.000000 0.005000 -0.000000
								}
							}
						}
					}
				}
			}
			JOINT RightShoulder
			{
				OFFSET 0.000000 0.391343 -0.000000
				CHANNELS 6 Xposition Yposition Zposition Xrotation Yrotation Zrotation
				JOINT RightArm
				{
					OFFSET -0.335509 -0.000001 0.000000
					CHANNELS 6 Xposition Yposition Zposition Xrotation Yrotation Zrotation
					JOINT RightForeArm
					{
						OFFSET -0.547209 -0.000002 0.000000
						CHANNELS 6 Xposition Yposition Zposition Xrotation Yrotation Zrotation
						JOINT RightHand
						{
							OFFSET -0.426005 -0.000002 0.000000
							CHANNELS 6 Xposition Yposition Zposition Xrotation Yrotation Zrotation
							JOINT RightHandThumb
							{
								OFFSET 0.000000 0.000000 0.000000
								CHANNELS 6 Xposition Yposition Zposition Xrotation Yrotation Zrotation
								End Site
								{
									OFFSET 0.000000 0.000000 0.196850
								}
							}
							JOINT R_Wrist_End
							{
								OFFSET -0.269685 -0.000001 0.000000
								CHANNELS 6 Xposition Yposition Zposition Xrotation Yrotation Zrotation
								End Site
								{
									OFFSET 0.000000 0.005000 -0.000000
								}
							}
						}
					}
				}
			}
		}
	}
}
MOTION
Frames: 6
Frame Time: 0.041667
-4.316895 1.522000 1.567365 -175.527597 151.451399 -190.351512 0.182476 0.000000 0.000000 -21.458202 -2.840096 4.528799 -0.000000 -0.785290 0.000000 80.666201 0.000005 0.000006 0.000000 -0.770934 0.000000 -22.969895 -0.100099 4.987698 -0.000000 -0.076772 0.286516 8.024099 0.000002 -0.000000 -0.182477 0.000000 0.000000 -11.264601 -3.588198 5.756499 -0.000000 -0.785290 -0.000000 43.071699 -0.000001 0.000006 0.000000 -0.770934 0.000000 -37.413495 -1.946501 -1.905400 0.000000 -0.076772 0.286517 0.977599 0.000002 -0.000000 -0.000000 0.001969 -0.000000 -2.842601 3.161001 1.463500 -0.000000 0.512414 0.000000 11.583898 1.524701 1.773599 -0.000000 0.391343 -0.000001 -1.111000 3.266600 -5.631003 0.000001 0.345358 0.000000 -3.809300 6.544097 2.247898 -0.000000 0.391344 -0.000001 21.043997 15.039996 -3.970203 0.335508 -0.000001 0.000000 -8.219306 -45.296315 -64.234091 0.547210 -0.000002 0.000000 0.000867 -103.087997 0.001080 0.426005 -0.000001 0.000000 -2.594899 3.138100 -14.309499 0.000000 -0.000000 -0.000000 -0.000000 -0.000000 -0.000000 0.196850 -0.000001 -0.000000 0.000000 0.000000 0.000000 -0.000000 0.391343 -0.000001 12.806599 -18.171098 2.312803 -0.335509 -0.000001 0.000000 -11.861099 44.493403 60.033394 -0.547210 -0.000002 -0.000000 0.001950 96.107701 -0.002177 -0.426005 -0.000002 -0.000000 -18.694100 4.334000 -3.438603 0.000000 -0.000000 0.000000 0.000000 -0.000000 0.000000 -0.269684 -0.000001 0.000000 0.000001 -0.000001 -0.000001 
-4.304380 1.530215 1.590705 -175.423409 150.988995 -190.358506 0.182477 0.000000 -0.000000 -22.434202 -2.795998 4.040798 -0.000000 -0.785290 0.000000 79.088297 0.000005 0.000003 0.000000 -0.770934 0.000000 -23.613593 -0.000501 5.501200 0.000000 -0.076772 0.286517 8.015803 -0.000001 0.000000 -0.182477 0.000000 -0.000000 -9.586201 -3.503700 5.788999 0.000000 -0.785290 0.000000 41.564392 -0.000000 0.000003 0.000000 -0.770934 0.000000 -36.362892 -2.150901 -1.743499 -0.000000 -0.076772 0.286517 0.022900 0.000000 0.000000 -0.000000 0.001969 -0.000000 -2.968099 3.402197 1.478799 -0.000001 0.512415 -0.000000 11.565499 1.751600 1.688000 -0.000000 0.391344 0.000000 -1.182599 3.119803 -5.776203 0.000000 0.345358 -0.000000 -3.337498 6.243399 2.617700 -0.000000 0.391344 0.000000 20.979302 15.237601 -3.858308 0.335509 -0.000001 0.000000 -6.708302 -44.627811 -63.378603 0.547209 -0.000002 -0.000000 0.000868 -103.383499 0.001080 0.426005 -0.000002 0.000000 -2.894000 3.044699 -14.157599 -0.000000 -0.000000 -0.000000 -0.000000 0.000000 0.000001 0.196850 -0.000001 -0.000000 0.000000 0.000001 -0.000000 -0.000000 0.391344 0.000000 12.591903 -18.039496 1.815601 -0.335510 -0.000001 -0.000000 -13.463903 44.989210 61.438802 -0.547209 -0.000003 -0.000000 0.001632 97.155397 -0.001869 -0.426006 -0.000002 0.000000 -19.120198 4.676300 -3.406900 0.000000 -0.000000 0.000000 0.000000 -0.000000 0.000000 -0.269684 -0.000001 0.000000 0.000001 -0.000001 -0.000003 
-4.292260 1.538980 1.613275 -175.155912 150.609510 -190.474319 0.182476 0.000000 0.000000 -23.547207 -2.683999 3.610698 0.000000 -0.785290 0.000000 77.338300 0.000005 0.000003 -0.000000 -0.770933 0.000000 -24.125997 0.091200 6.027397 0.000000 -0.076771 0.286517 8.033693 -0.000001 0.000000 -0.182476 0.000000 0.000000 -8.218502 -3.389598 5.836599 0.000000 -0.785290 0.000000 40.234599 0.000001 0.000005 0.000000 -0.770934 0.000000 -35.143202 -2.318201 -1.293399 -0.000000 -0.076772 0.286517 -0.075399 -0.000002 -0.000001 -0.000000 0.001969 0.000000 -3.113500 3.716501 1.484000 -0.000000 0.512415 -0.000000 11.388900 2.057801 1.614300 0.000001 0.391344 -0.000000 -1.154100 2.887497 -5.730399 0.000000 0.345358 0.000000 -3.010698 5.964799 2.741098 0.000001 0.391344 -0.000000 20.981600 15.534002 -3.725201 0.335509 -0.000001 0.000000 -5.458703 -44.154311 -62.603294 0.547209 -0.000003 -0.000000 0.000865 -103.558604 0.001081 0.426005 -0.000001 0.000000 -3.104400 2.806500 -14.073398 0.000000 -0.000001 -0.000000 -0.000000 -0.000001 0.000001 0.196850 -0.000001 -0.000000 -0.000000 0.000000 0.000000 0.000001 0.391344 -0.000000 12.298399 -17.978704 1.293105 -0.335509 -0.000001 0.000000 -14.899207 45.341203 62.891904 -0.547209 -0.000002 -0.000000 0.001343 98.280200 -0.001674 -0.426005 -0.000002 -0.000000 -19.040600 4.449999 -3.316800 -0.000000 -0.000000 0.000000 -0.000001 -0.000000 -0.000001 -0.269685 -0.000001 0.000000 -0.000000 0.000000 0.000001 
-4.279905 1.548385 1.636170 -174.940023 150.256894 -190.576198 0.182477 0.000000 0.000000 -24.470700 -2.544501 3.214500 0.000000 -0.785290 0.000000 75.299899 0.000004 0.000005 -0.000000 -0.770934 0.000000 -24.426408 0.231202 5.904496 0.000000 -0.076771 0.286516 7.739996 -0.000001 -0.000001 -0.182477 0.000000 0.000000 -6.839500 -3.117499 5.908700 -0.000000 -0.785290 0.000000 38.885800 -0.000000 0.000004 0.000000 -0.770934 -0.000000 -33.627204 -2.388300 -1.168000 -0.000000 -0.076771 0.286516 -0.784501 0.000003 0.000000 -0.000000 0.001969 0.000000 -3.250900 4.052900 1.489400 0.000000 0.512415 0.000000 11.296399 2.384600 1.529400 -0.000000 0.391343 -0.000000 -1.242700 2.727797 -5.703700 -0.000000 0.345358 -0.000000 -2.637700 5.624994 2.897902 -0.000000 0.391343 -0.000000 20.727001 15.716699 -3.483902 0.335509 -0.000001 -0.000001 -4.064414 -43.531210 -61.959706 0.547210 -0.000002 -0.000000 0.000871 -103.790796 0.001083 0.426005 -0.000001 0.000000 -3.204799 2.520901 -13.927402 -0.000000 0.000000 -0.000000 0.000000 -0.000001 0.000000 0.196850 -0.000000 -0.000000 -0.000000 -0.000000 -0.000000 -0.000000 0.391343 -0.000000 11.916602 -17.976703 0.753403 -0.335509 -0.000001 0.000000 -16.219800 45.628915 64.406792 -0.547209 -0.000002 0.000000 0.001255 99.319598 -0.001462 -0.426005 -0.000001 -0.000000 -19.274896 4.628300 -3.155101 -0.000000 -0.000000 0.000000 -0.000000 -0.000000 -0.000001 -0.269685 -0.000001 0.000000 0.000000 0.000000 0.000001 
-4.266790 1.558410 1.659795 -174.853307 149.803903 -190.611810 0.182476 -0.000000 -0.000000 -25.122604 -2.418401 2.801598 0.000000 -0.785290 -0.000000 72.993002 0.000002 0.000005 -0.000000 -0.770934 0.000000 -24.617298 0.200799 6.268297 -0.000000 -0.076771 0.286517 7.643394 -0.000005 0.000003 -0.182476 0.000000 -0.000000 -5.267600 -3.129799 5.898800 -0.000000 -0.785290 0.000000 37.471999 0.000001 0.000005 0.000001 -0.770933 0.000000 -31.786894 -2.308401 -0.836700 -0.000000 -0.076772 0.286516 -2.253998 -0.000002 -0.000001 -0.000000 0.001969 -0.000000 -3.345600 4.329998 1.492999 -0.000000 0.512415 0.000000 11.266000 2.644698 1.421599 -0.000000 0.391343 -0.000000 -1.219499 2.596402 -5.599601 0.000000 0.345357 0.000000 -2.420900 5.318399 2.964100 -0.000000 0.391343 -0.000000 20.697903 15.856602 -3.320302 0.335510 -0.000001 -0.000000 -2.942209 -42.838212 -61.381291 0.547210 -0.000002 -0.000000 0.000775 -104.061798 0.001083 0.426005 -0.000002 0.000000 -3.227000 2.530201 -13.745599 -0.000000 -0.000000 -0.000000 0.000000 -0.000000 0.000001 0.196850 -0.000001 -0.000000 -0.000000 -0.000000 0.000001 -0.000000 0.391343 -0.000000 11.716100 -17.903302 0.332305 -0.335509 -0.000001 -0.000000 -17.467907 45.891109 65.793805 -0.547210 -0.000002 -0.000000 0.001058 100.382395 -0.001396 -0.426005 -0.000002 0.000000 -19.414398 4.824998 -3.519199 -0.000000 -0.000001 0.000000 -0.000002 -0.000001 -0.000001 -0.269685 -0.000002 0.000000 -0.000001 -0.000000 -0.000001 
-4.253290 1.568745 1.682925 -174.653210 149.261504 -190.729604 0.182477 0.000000 -0.000000 -25.779898 -2.397597 2.326699 -0.000000 -0.785290 -0.000000 70.474397 0.000003 0.000004 -0.000001 -0.770934 -0.000000 -24.713199 0.116103 6.534897 -0.000000 -0.076771 0.286517 7.608596 -0.000003 -0.000001 -0.182476 0.000000 -0.000000 -3.837900 -3.312494 5.852900 0.000001 -0.785290 0.000000 36.137301 -0.000002 0.000002 0.000000 -0.770934 0.000000 -29.808797 -2.061599 -0.682100 -0.000000 -0.076772 0.286516 -3.412999 0.000002 -0.000001 0.000000 0.001969 -0.000000 -3.492900 4.575302 1.537298 -0.000000 0.512414 -0.000000 11.241300 2.876499 1.326799 -0.000000 0.391343 -0.000000 -1.397901 2.485301 -5.595400 0.000000 0.345358 0.000000 -1.932602 5.011401 3.203600 -0.000000 0.391343 -0.000000 20.632000 15.951700 -3.174505 0.335509 -0.000001 -0.000000 -1.931103 -42.178710 -60.848694 0.547209 -0.000002 -0.000000 0.000774 -104.246698 0.001085 0.426005 -0.000001 -0.000000 -3.342401 2.431901 -13.572100 0.000000 0.000000 0.000000 -0.000000 0.000001 -0.000000 0.196850 -0.000000 0.000000 0.000000 0.000000 -0.000000 -0.000000 0.391343 -0.000000 11.451897 -17.927300 -0.062199 -0.335509 -0.000001 -0.000000 -18.527206 46.132013 67.063797 -0.547210 -0.000002 -0.000000 0.000962 101.484296 -0.001298 -0.426005 -0.000002 -0.000000 -19.699002 4.862198 -3.900297 0.000000 -0.000000 -0.000000 0.000001 -0.000000 0.000000 -0.269684 -0.000001 -0.000000 0.000001 0.000000 -0.000000 
